<svg xmlns="http://www.w3.org/2000/svg" version="1.1" xmlns:xlink="http://www.w3.org/1999/xlink" xmlns:svgjs="http://svgjs.dev/svgjs" width="1000" height="1000" viewBox="0 0 1000 1000"><rect width="1000" height="1000" fill="#ffffff"></rect><g transform="matrix(0.7,0,0,0.7,149.57575757575756,282.2042502458456)"><svg viewBox="0 0 396 247" data-background-color="#ffffff" preserveAspectRatio="xMidYMid meet" height="623" width="1000" xmlns="http://www.w3.org/2000/svg" xmlns:xlink="http://www.w3.org/1999/xlink"><g id="tight-bounds" transform="matrix(1,0,0,1,0.2400000000000091,-0.12200323486328557)"><svg viewBox="0 0 395.52 247.2" height="247.2" width="395.52"><rect width="395.5199890136719" height="247.26600646972656" fill="url(#6dac643c-1ba3-4d7a-84d3-4329093b8b3c)" mask="url(#f43b18f0-bda9-456b-9fed-7df4b0b2c6ec)" data-fill-palette-color="tertiary"></rect><g><svg></svg></g><g><svg viewBox="0 0 395.52 247.2" height="247.2" width="395.52"><mask id="33434a77-e011-499a-aa9b-d7e6a72c77ca"><rect width="395.52" height="247.2" fill="white"></rect><g transform="matrix(1,0,0,1,40.98828316086548,37.08)" id="clone"><svg viewBox="0 0 313.543433678269 173.04" height="173.04" width="313.543433678269"><g><svg viewBox="0 0 313.543433678269 173.04" height="173.04" width="313.543433678269"><g><svg viewBox="0 0 313.543433678269 173.04" height="173.04" width="313.543433678269"><g><svg viewBox="0 0 313.543433678269 173.04" height="173.04" width="313.543433678269"><g id="SvgjsG1231"><svg viewBox="0 0 313.543433678269 173.04" height="173.04" width="313.543433678269" id="SvgjsSvg1230"><g><svg viewBox="0 0 313.543433678269 173.04" height="173.04" width="313.543433678269"><g transform="matrix(1,0,0,1,0,0)"><svg width="313.543433678269" viewBox="-0.5099999904632568 -39.040000915527344 76.24000549316406 42.53000259399414" height="173.04" data-palette-color="url(#d9ae957d-216c-4b00-a7f7-219bc7dbd6d4)"><path d="M24.58-11.57L30.74-11.57Q30.2-5.88 26.54-2.7 22.88 0.49 16.8 0.49L16.8 0.49Q12.55 0.49 9.31-1.53 6.08-3.54 4.32-7.25 2.56-10.96 2.49-15.87L2.49-15.87 2.49-19.19Q2.49-24.22 4.27-28.05 6.05-31.88 9.39-33.96 12.72-36.04 17.09-36.04L17.09-36.04Q22.97-36.04 26.56-32.84 30.15-29.64 30.74-23.8L30.74-23.8 24.58-23.8Q24.15-27.64 22.35-29.33 20.56-31.03 17.09-31.03L17.09-31.03Q13.06-31.03 10.9-28.09 8.74-25.15 8.69-19.46L8.69-19.46 8.69-16.31Q8.69-10.55 10.75-7.52 12.82-4.49 16.8-4.49L16.8-4.49Q20.43-4.49 22.27-6.13 24.1-7.76 24.58-11.57L24.58-11.57ZM36.25-35.55L44.26-35.55 54.51-8.3 64.74-35.55 72.73-35.55 72.73 0 66.57 0 66.57-11.72 67.19-27.39 56.69 0 52.27 0 41.79-27.37 42.4-11.72 42.4 0 36.25 0 36.25-35.55Z" opacity="1" transform="matrix(1,0,0,1,0,0)" fill="black" class="wordmark-text-0" id="SvgjsPath1229" stroke-width="5" stroke="black" stroke-linejoin="round"></path></svg></g></svg></g></svg></g></svg></g></svg></g></svg></g></svg></g></mask><g mask="url(#33434a77-e011-499a-aa9b-d7e6a72c77ca)"><g><path xmlns="http://www.w3.org/2000/svg" d="M251.669 165.597h41.693c-2.437 25.674-11.912 45.686-28.427 60.034-16.515 14.394-38.489 21.591-65.923 21.591v0c-19.177 0-36.075-4.557-50.694-13.672-14.574-9.069-25.832-21.974-33.774-38.714-7.941-16.74-12.07-36.188-12.386-58.342v0-22.471c0-22.696 4.016-42.685 12.048-59.967 8.032-17.282 19.583-30.615 34.653-40 15.026-9.385 32.397-14.078 52.116-14.078v0c26.532 0 47.897 7.219 64.095 21.658 16.199 14.439 25.629 34.834 28.292 61.185v0h-41.693c-1.94-17.327-6.971-29.803-15.093-37.428-8.077-7.671-19.944-11.506-35.601-11.506v0c-18.184 0-32.149 6.633-41.896 19.898-9.746 13.266-14.732 32.736-14.957 58.41v0 21.32c0 25.99 4.648 45.821 13.942 59.493 9.34 13.672 22.99 20.508 40.948 20.508v0c16.379 0 28.72-3.7 37.022-11.1 8.257-7.355 13.469-19.628 15.635-36.819z" fill="url(#6dac643c-1ba3-4d7a-84d3-4329093b8b3c)" fill-rule="nonzero" stroke="none" stroke-width="1" stroke-linecap="butt" stroke-linejoin="miter" stroke-miterlimit="10" stroke-dasharray="" stroke-dashoffset="0" font-family="none" font-weight="none" font-size="none" text-anchor="none" style="mix-blend-mode: normal" data-fill-palette-color="tertiary"></path></g></g><g transform="matrix(1,0,0,1,40.98828316086548,37.08)"><svg viewBox="0 0 313.543433678269 173.04" height="173.04" width="313.543433678269"><g><svg viewBox="0 0 313.543433678269 173.04" height="173.04" width="313.543433678269"><g><svg viewBox="0 0 313.543433678269 173.04" height="173.04" width="313.543433678269"><g><svg viewBox="0 0 313.543433678269 173.04" height="173.04" width="313.543433678269"><g id="textblocktransform"><svg viewBox="0 0 313.543433678269 173.04" height="173.04" width="313.543433678269" id="textblock"><g><svg viewBox="0 0 313.543433678269 173.04" height="173.04" width="313.543433678269"><g transform="matrix(1,0,0,1,0,0)"><svg width="313.543433678269" viewBox="-0.5099999904632568 -39.040000915527344 76.24000549316406 42.53000259399414" height="173.04" data-palette-color="url(#d9ae957d-216c-4b00-a7f7-219bc7dbd6d4)"></svg></g></svg></g></svg></g></svg></g></svg></g></svg></g></svg></g></svg></g><defs></defs><mask id="57eb9dd6-89a1-4c2a-a090-d9dde307cb47"><g id="SvgjsG1241"><svg viewBox="0 0 395.52 247.2" height="247.2" width="395.52"><g><svg></svg></g><g><svg viewBox="0 0 395.52 247.2" height="247.2" width="395.52"><mask id="SvgjsMask1240"><g transform="matrix(1,0,0,1,40.98828316086548,37.08)" id="SvgjsG1239"><svg viewBox="0 0 313.543433678269 173.04" height="173.04" width="313.543433678269"><g><svg viewBox="0 0 313.543433678269 173.04" height="173.04" width="313.543433678269"><g><svg viewBox="0 0 313.543433678269 173.04" height="173.04" width="313.543433678269"><g><svg viewBox="0 0 313.543433678269 173.04" height="173.04" width="313.543433678269"><g id="SvgjsG1238"><svg viewBox="0 0 313.543433678269 173.04" height="173.04" width="313.543433678269" id="SvgjsSvg1237"><g><svg viewBox="0 0 313.543433678269 173.04" height="173.04" width="313.543433678269"><g transform="matrix(1,0,0,1,0,0)"><svg width="313.543433678269" viewBox="-0.5099999904632568 -39.040000915527344 76.24000549316406 42.53000259399414" height="173.04" data-palette-color="url(#d9ae957d-216c-4b00-a7f7-219bc7dbd6d4)"></svg></g></svg></g></svg></g></svg></g></svg></g></svg></g></svg></g></mask><g mask="url(#33434a77-e011-499a-aa9b-d7e6a72c77ca)"><g></g></g><g transform="matrix(1,0,0,1,40.98828316086548,37.08)"><svg viewBox="0 0 313.543433678269 173.04" height="173.04" width="313.543433678269"><g><svg viewBox="0 0 313.543433678269 173.04" height="173.04" width="313.543433678269"><g><svg viewBox="0 0 313.543433678269 173.04" height="173.04" width="313.543433678269"><g><svg viewBox="0 0 313.543433678269 173.04" height="173.04" width="313.543433678269"><g id="SvgjsG1235"><svg viewBox="0 0 313.543433678269 173.04" height="173.04" width="313.543433678269" id="SvgjsSvg1234"><g><svg viewBox="0 0 313.543433678269 173.04" height="173.04" width="313.543433678269"><g transform="matrix(1,0,0,1,0,0)"><svg width="313.543433678269" viewBox="-0.5099999904632568 -39.040000915527344 76.24000549316406 42.53000259399414" height="173.04" data-palette-color="url(#d9ae957d-216c-4b00-a7f7-219bc7dbd6d4)"><path d="M24.58-11.57L30.74-11.57Q30.2-5.88 26.54-2.7 22.88 0.49 16.8 0.49L16.8 0.49Q12.55 0.49 9.31-1.53 6.08-3.54 4.32-7.25 2.56-10.96 2.49-15.87L2.49-15.87 2.49-19.19Q2.49-24.22 4.27-28.05 6.05-31.88 9.39-33.96 12.72-36.04 17.09-36.04L17.09-36.04Q22.97-36.04 26.56-32.84 30.15-29.64 30.74-23.8L30.74-23.8 24.58-23.8Q24.15-27.64 22.35-29.33 20.56-31.03 17.09-31.03L17.09-31.03Q13.06-31.03 10.9-28.09 8.74-25.15 8.69-19.46L8.69-19.46 8.69-16.31Q8.69-10.55 10.75-7.52 12.82-4.49 16.8-4.49L16.8-4.49Q20.43-4.49 22.27-6.13 24.1-7.76 24.58-11.57L24.58-11.57ZM36.25-35.55L44.26-35.55 54.51-8.3 64.74-35.55 72.73-35.55 72.73 0 66.57 0 66.57-11.72 67.19-27.39 56.69 0 52.27 0 41.79-27.37 42.4-11.72 42.4 0 36.25 0 36.25-35.55Z" opacity="1" transform="matrix(1,0,0,1,0,0)" fill="white" class="wordmark-text-0" id="SvgjsPath1233"></path></svg></g></svg></g></svg></g></svg></g></svg></g></svg></g></svg></g></svg></g><defs><mask></mask></defs></svg></g></mask><linearGradient x1="0" x2="1" y1="0.5" y2="0.5" id="d9ae957d-216c-4b00-a7f7-219bc7dbd6d4"><stop stop-color="#ffa62e" offset="0"></stop><stop stop-color="#f71b3d" offset="1"></stop></linearGradient><rect width="395.5199890136719" height="247.24400329589844" fill="url(#d9ae957d-216c-4b00-a7f7-219bc7dbd6d4)" mask="url(#57eb9dd6-89a1-4c2a-a090-d9dde307cb47)" data-fill-palette-color="primary"></rect><mask id="f43b18f0-bda9-456b-9fed-7df4b0b2c6ec"><g id="SvgjsG1257"><svg viewBox="0 0 395.52 247.2" height="247.2" width="395.52"><g><svg></svg></g><g><svg viewBox="0 0 395.52 247.2" height="247.2" width="395.52"><mask id="SvgjsMask1256"><g transform="matrix(1,0,0,1,40.98828316086548,37.08)" id="SvgjsG1255"><svg viewBox="0 0 313.543433678269 173.04" height="173.04" width="313.543433678269"><g><svg viewBox="0 0 313.543433678269 173.04" height="173.04" width="313.543433678269"><g><svg viewBox="0 0 313.543433678269 173.04" height="173.04" width="313.543433678269"><g><svg viewBox="0 0 313.543433678269 173.04" height="173.04" width="313.543433678269"><g id="SvgjsG1254"><svg viewBox="0 0 313.543433678269 173.04" height="173.04" width="313.543433678269" id="SvgjsSvg1253"><g><svg viewBox="0 0 313.543433678269 173.04" height="173.04" width="313.543433678269"><g transform="matrix(1,0,0,1,0,0)"><svg width="313.543433678269" viewBox="-0.5099999904632568 -39.040000915527344 76.24000549316406 42.53000259399414" height="173.04" data-palette-color="url(#d9ae957d-216c-4b00-a7f7-219bc7dbd6d4)"></svg></g></svg></g></svg></g></svg></g></svg></g></svg></g></svg></g></mask><g mask="url(#33434a77-e011-499a-aa9b-d7e6a72c77ca)"><g><path xmlns="http://www.w3.org/2000/svg" d="M251.669 165.597h41.693c-2.437 25.674-11.912 45.686-28.427 60.034-16.515 14.394-38.489 21.591-65.923 21.591v0c-19.177 0-36.075-4.557-50.694-13.672-14.574-9.069-25.832-21.974-33.774-38.714-7.941-16.74-12.07-36.188-12.386-58.342v0-22.471c0-22.696 4.016-42.685 12.048-59.967 8.032-17.282 19.583-30.615 34.653-40 15.026-9.385 32.397-14.078 52.116-14.078v0c26.532 0 47.897 7.219 64.095 21.658 16.199 14.439 25.629 34.834 28.292 61.185v0h-41.693c-1.94-17.327-6.971-29.803-15.093-37.428-8.077-7.671-19.944-11.506-35.601-11.506v0c-18.184 0-32.149 6.633-41.896 19.898-9.746 13.266-14.732 32.736-14.957 58.41v0 21.32c0 25.99 4.648 45.821 13.942 59.493 9.34 13.672 22.99 20.508 40.948 20.508v0c16.379 0 28.72-3.7 37.022-11.1 8.257-7.355 13.469-19.628 15.635-36.819z" fill="white" fill-rule="nonzero" stroke="none" stroke-width="1" stroke-linecap="butt" stroke-linejoin="miter" stroke-miterlimit="10" stroke-dasharray="" stroke-dashoffset="0" font-family="none" font-weight="none" font-size="none" text-anchor="none" style="mix-blend-mode: normal"></path></g></g><g transform="matrix(1,0,0,1,40.98828316086548,37.08)"><svg viewBox="0 0 313.543433678269 173.04" height="173.04" width="313.543433678269"><g><svg viewBox="0 0 313.543433678269 173.04" height="173.04" width="313.543433678269"><g><svg viewBox="0 0 313.543433678269 173.04" height="173.04" width="313.543433678269"><g><svg viewBox="0 0 313.543433678269 173.04" height="173.04" width="313.543433678269"><g id="SvgjsG1251"><svg viewBox="0 0 313.543433678269 173.04" height="173.04" width="313.543433678269" id="SvgjsSvg1250"><g><svg viewBox="0 0 313.543433678269 173.04" height="173.04" width="313.543433678269"><g transform="matrix(1,0,0,1,0,0)"><svg width="313.543433678269" viewBox="-0.5099999904632568 -39.040000915527344 76.24000549316406 42.53000259399414" height="173.04" data-palette-color="url(#d9ae957d-216c-4b00-a7f7-219bc7dbd6d4)"></svg></g></svg></g></svg></g></svg></g></svg></g></svg></g></svg></g></svg></g><defs><mask></mask></defs><mask><g id="SvgjsG1249"><svg viewBox="0 0 395.52 247.2" height="247.2" width="395.52"><g><svg></svg></g><g><svg viewBox="0 0 395.52 247.2" height="247.2" width="395.52"><mask id="SvgjsMask1248"><g transform="matrix(1,0,0,1,40.98828316086548,37.08)" id="SvgjsG1247"><svg viewBox="0 0 313.543433678269 173.04" height="173.04" width="313.543433678269"><g><svg viewBox="0 0 313.543433678269 173.04" height="173.04" width="313.543433678269"><g><svg viewBox="0 0 313.543433678269 173.04" height="173.04" width="313.543433678269"><g><svg viewBox="0 0 313.543433678269 173.04" height="173.04" width="313.543433678269"><g id="SvgjsG1246"><svg viewBox="0 0 313.543433678269 173.04" height="173.04" width="313.543433678269" id="SvgjsSvg1245"><g><svg viewBox="0 0 313.543433678269 173.04" height="173.04" width="313.543433678269"><g transform="matrix(1,0,0,1,0,0)"><svg width="313.543433678269" viewBox="-0.5099999904632568 -39.040000915527344 76.24000549316406 42.53000259399414" height="173.04" data-palette-color="url(#d9ae957d-216c-4b00-a7f7-219bc7dbd6d4)"></svg></g></svg></g></svg></g></svg></g></svg></g></svg></g></svg></g></mask><g mask="url(#33434a77-e011-499a-aa9b-d7e6a72c77ca)"><g></g></g><g transform="matrix(1,0,0,1,40.98828316086548,37.08)"><svg viewBox="0 0 313.543433678269 173.04" height="173.04" width="313.543433678269"><g><svg viewBox="0 0 313.543433678269 173.04" height="173.04" width="313.543433678269"><g><svg viewBox="0 0 313.543433678269 173.04" height="173.04" width="313.543433678269"><g><svg viewBox="0 0 313.543433678269 173.04" height="173.04" width="313.543433678269"><g id="SvgjsG1244"><svg viewBox="0 0 313.543433678269 173.04" height="173.04" width="313.543433678269" id="SvgjsSvg1243"><g><svg viewBox="0 0 313.543433678269 173.04" height="173.04" width="313.543433678269"><g transform="matrix(1,0,0,1,0,0)"><svg width="313.543433678269" viewBox="-0.5099999904632568 -39.040000915527344 76.24000549316406 42.53000259399414" height="173.04" data-palette-color="url(#d9ae957d-216c-4b00-a7f7-219bc7dbd6d4)"></svg></g></svg></g></svg></g></svg></g></svg></g></svg></g></svg></g></svg></g><defs><mask></mask></defs></svg></g></mask></svg></g></mask><linearGradient x1="0" x2="1" y1="0.5" y2="0.5" id="6dac643c-1ba3-4d7a-84d3-4329093b8b3c"><stop stop-color="#ffa62e" offset="0"></stop><stop stop-color="#f71b3d" offset="1"></stop></linearGradient></svg><rect width="395.52" height="247.2" fill="none" stroke="none" visibility="hidden"></rect></g></svg></g></svg>